REM DIRINDEX 1\2,1\3,1\4,1\5
REM DIRNAME "folder01","folder02","folder03","folder04","folder05"
TITLE ""
FILE "P1Q_t_0439-0448.mp3" MP3
  TRACK 01 AUDIO
    TITLE "3:cjc173_2244"
    INDEX 01 00:00:00
  TRACK 02 AUDIO
    TITLE "0:"
    INDEX 01 00:01:14
  TRACK 03 AUDIO
    TITLE "4:cjc173_2245"
    INDEX 01 00:01:35
  TRACK 04 AUDIO
    TITLE "0:"
    INDEX 01 00:04:45
  TRACK 05 AUDIO
    TITLE "5:cjc173_2246"
    INDEX 01 00:04:65
  TRACK 06 AUDIO
    TITLE "0:"
    INDEX 01 00:09:15
  TRACK 07 AUDIO
    TITLE "3:cjc173_2247"
    INDEX 01 00:09:60
  TRACK 08 AUDIO
    TITLE "0:"
    INDEX 01 00:11:26
  TRACK 09 AUDIO
    TITLE "4:cjc173_2248"
    INDEX 01 00:11:49
  TRACK 10 AUDIO
    TITLE "0:"
    INDEX 01 00:12:57
  TRACK 11 AUDIO
    TITLE "5:cjc173_2249"
    INDEX 01 00:13:01
  TRACK 12 AUDIO
    TITLE "0:"
    INDEX 01 00:17:56
  TRACK 13 AUDIO
    TITLE "3:cjc173_2250"
    INDEX 01 00:18:26
  TRACK 14 AUDIO
    TITLE "0:"
    INDEX 01 00:19:45
  TRACK 15 AUDIO
    TITLE "4:cjc173_2251"
    INDEX 01 00:19:66
  TRACK 16 AUDIO
    TITLE "0:"
    INDEX 01 00:22:02
  TRACK 17 AUDIO
    TITLE "5:cjc173_2252"
    INDEX 01 00:22:22
  TRACK 18 AUDIO
    TITLE "0:"
    INDEX 01 00:26:53
  TRACK 19 AUDIO
    TITLE "3:cjc173_2253"
    INDEX 01 00:27:25
  TRACK 20 AUDIO
    TITLE "0:"
    INDEX 01 00:28:54
  TRACK 21 AUDIO
    TITLE "4:cjc173_2254"
    INDEX 01 00:29:02
  TRACK 22 AUDIO
    TITLE "0:"
    INDEX 01 00:31:15
  TRACK 23 AUDIO
    TITLE "5:cjc173_2255"
    INDEX 01 00:31:34
  TRACK 24 AUDIO
    TITLE "0:"
    INDEX 01 00:35:69
  TRACK 25 AUDIO
    TITLE "3:cjc173_2256"
    INDEX 01 00:36:45
  TRACK 26 AUDIO
    TITLE "0:"
    INDEX 01 00:37:64
  TRACK 27 AUDIO
    TITLE "4:cjc173_2257"
    INDEX 01 00:38:09
  TRACK 28 AUDIO
    TITLE "0:"
    INDEX 01 00:40:63
  TRACK 29 AUDIO
    TITLE "5:cjc173_2258"
    INDEX 01 00:41:07
  TRACK 30 AUDIO
    TITLE "0:"
    INDEX 01 00:45:38
  TRACK 31 AUDIO
    TITLE "3:cjc173_2259"
    INDEX 01 00:46:12
  TRACK 32 AUDIO
    TITLE "0:"
    INDEX 01 00:47:41
  TRACK 33 AUDIO
    TITLE "4:cjc173_2260"
    INDEX 01 00:47:61
  TRACK 34 AUDIO
    TITLE "0:"
    INDEX 01 00:50:08
  TRACK 35 AUDIO
    TITLE "5:cjc173_2261"
    INDEX 01 00:50:30
  TRACK 36 AUDIO
    TITLE "0:"
    INDEX 01 00:55:47
  TRACK 37 AUDIO
    TITLE "3:cjc173_2262"
    INDEX 01 00:56:17
  TRACK 38 AUDIO
    TITLE "0:"
    INDEX 01 00:57:36
  TRACK 39 AUDIO
    TITLE "4:cjc173_2263"
    INDEX 01 00:57:55
  TRACK 40 AUDIO
    TITLE "0:"
    INDEX 01 01:01:41
  TRACK 41 AUDIO
    TITLE "5:cjc173_2264"
    INDEX 01 01:01:61
  TRACK 42 AUDIO
    TITLE "0:"
    INDEX 01 01:05:59
  TRACK 43 AUDIO
    TITLE "3:cjc173_2265"
    INDEX 01 01:06:29
  TRACK 44 AUDIO
    TITLE "0:"
    INDEX 01 01:07:54
  TRACK 45 AUDIO
    TITLE "4:cjc173_2266"
    INDEX 01 01:08:00
  TRACK 46 AUDIO
    TITLE "0:"
    INDEX 01 01:10:40
  TRACK 47 AUDIO
    TITLE "5:cjc173_2267"
    INDEX 01 01:10:62
  TRACK 48 AUDIO
    TITLE "0:"
    INDEX 01 01:13:56
  TRACK 49 AUDIO
    TITLE "3:cjc173_2268"
    INDEX 01 01:14:26
  TRACK 50 AUDIO
    TITLE "0:"
    INDEX 01 01:15:53
  TRACK 51 AUDIO
    TITLE "4:cjc173_2269"
    INDEX 01 01:15:73
  TRACK 52 AUDIO
    TITLE "0:"
    INDEX 01 01:18:20
  TRACK 53 AUDIO
    TITLE "5:cjc173_2270"
    INDEX 01 01:18:42
  TRACK 54 AUDIO
    TITLE "0:"
    INDEX 01 01:22:55
  TRACK 55 AUDIO
    TITLE "3:cjc173_2271"
    INDEX 01 01:23:27
  TRACK 56 AUDIO
    TITLE "0:"
    INDEX 01 01:24:37
  TRACK 57 AUDIO
    TITLE "4:cjc173_2272"
    INDEX 01 01:24:58
  TRACK 58 AUDIO
    TITLE "0:"
    INDEX 01 01:28:58
  TRACK 59 AUDIO
    TITLE "5:cjc173_2273"
    INDEX 01 01:29:02
  TRACK 60 AUDIO
    TITLE "0:"
    INDEX 01 01:33:65
